<svg width="256" height="256" viewBox="0 0 256 256" fill="none" xmlns="http://www.w3.org/2000/svg">
<path fill-rule="evenodd" clip-rule="evenodd" d="M201 65.3963C221.526 89.4039 229.809 123.046 220.086 155.537C204.841 206.303 151.305 235.159 100.528 219.933C49.7523 204.709 20.824 151.131 36.0689 100.365C47.8326 61.1241 82.5218 34.975 121.174 32.0269C125.015 31.764 128.857 33.4433 131.377 36.5211C133.778 39.5989 134.62 43.6838 133.419 47.453C133.419 47.5274 133.42 47.6018 133.3 47.651C131.859 52.4165 127.658 55.792 122.616 56.1209C93.8068 58.3212 67.8781 77.9079 59.1153 107.261C47.7116 145.336 69.3176 185.519 107.37 196.938C145.422 208.357 185.636 186.715 197.04 148.64C202.681 130.076 200.401 111.011 192.119 95.0217L146.982 104.261H156.346C165.349 112.478 171.471 126.768 171.351 140.273C171.231 149.783 170.151 156.714 165.349 164.28H87.3243C82.5227 156.714 81.4424 149.783 81.3223 140.273C81.2023 126.768 87.3243 112.478 96.3271 104.261H122.855L201 65.3963ZM137.74 108.549C144.823 115.018 149.863 125.88 150.583 136.579H138.58C137.859 125.88 132.819 115.018 125.736 108.549H137.74ZM154.665 108.549C161.627 115.018 166.669 125.88 167.389 136.579H155.385C154.665 125.88 149.624 115.018 142.542 108.549H154.665ZM119.615 108.549C126.697 115.018 131.738 125.88 132.458 136.579H85.2845C86.0048 125.88 91.0454 115.018 98.1277 108.549H119.615Z" fill="white"/>
</svg>
